<svg xmlns="http://www.w3.org/2000/svg" x="0px" y="0px"
     width="50" height="50"
     viewBox="0 0 252 252"
     style="fill:#8e44ad;"><g fill="none" fill-rule="nonzero" stroke="none" stroke-width="1" stroke-linecap="butt" stroke-linejoin="miter" stroke-miterlimit="10" stroke-dasharray="" stroke-dashoffset="0" font-family="none" font-weight="none" font-size="none" text-anchor="none" style="mix-blend-mode: normal"><path d="M0,252v-252h252v252z" fill="none"></path><path d="M0,126c0,-69.58788 56.41212,-126 126,-126c69.58788,0 126,56.41212 126,126c0,69.58788 -56.41212,126 -126,126c-69.58788,0 -126,-56.41212 -126,-126zM126,241.92c64.02085,0 115.92,-51.89915 115.92,-115.92c0,-64.02085 -51.89915,-115.92 -115.92,-115.92c-64.02085,0 -115.92,51.89915 -115.92,115.92c0,64.02085 51.89915,115.92 115.92,115.92z" fill="#de4ecb"></path><g fill="#de4ecb"><path d="M119.34932,44.00156l-50.54766,79.08222l57.16758,28.10391l56.25703,-28.12852l-49.64942,-79.05762h-3.48222zM119.64463,66.91289v27.41484l-24.65859,11.18496zM132.24463,67.17129l24.05566,38.30449l-24.05566,-11.04961zM119.64463,108.1582v25.87676l-27.36562,-13.46133zM132.24463,108.30586l26.75039,12.28008l-26.75039,13.3752zM69.24463,135.42539v15.87305l49.94472,55.71562h6.75528h6.75528l49.94472,-55.71562v-15.87305l-56.7,29.06367zM97.72998,164.19375l21.91465,11.23418v13.20293zM154.15928,164.19375l-21.91465,24.43711v-13.20293z"></path></g><path d="M126,252c-69.58788,0 -126,-56.41212 -126,-126v0c0,-69.58788 56.41212,-126 126,-126v0c69.58788,0 126,56.41212 126,126v0c0,69.58788 -56.41212,126 -126,126z" fill="none"></path><path d="M126,246.96c-66.80436,0 -120.96,-54.15564 -120.96,-120.96v0c0,-66.80436 54.15564,-120.96 120.96,-120.96h0c66.80436,0 120.96,54.15564 120.96,120.96v0c0,66.80436 -54.15564,120.96 -120.96,120.96z" fill="none"></path><path d="M126,252c-69.58788,0 -126,-56.41212 -126,-126v0c0,-69.58788 56.41212,-126 126,-126v0c69.58788,0 126,56.41212 126,126v0c0,69.58788 -56.41212,126 -126,126z" fill="none"></path><path d="M126,246.96c-66.80436,0 -120.96,-54.15564 -120.96,-120.96v0c0,-66.80436 54.15564,-120.96 120.96,-120.96h0c66.80436,0 120.96,54.15564 120.96,120.96v0c0,66.80436 -54.15564,120.96 -120.96,120.96z" fill="none"></path><path d="M126,252c-69.58788,0 -126,-56.41212 -126,-126v0c0,-69.58788 56.41212,-126 126,-126v0c69.58788,0 126,56.41212 126,126v0c0,69.58788 -56.41212,126 -126,126z" fill="none"></path><path d="M126,241.92c-64.02085,0 -115.92,-51.89915 -115.92,-115.92v0c0,-64.02085 51.89915,-115.92 115.92,-115.92h0c64.02085,0 115.92,51.89915 115.92,115.92v0c0,64.02085 -51.89915,115.92 -115.92,115.92z" fill="none"></path></g></svg>